<?xml version="1.0" standalone="no"?>
<!DOCTYPE svg PUBLIC "-//W3C//DTD SVG 20010904//EN"
 "http://www.w3.org/TR/2001/REC-SVG-20010904/DTD/svg10.dtd">
<svg version="1.0" xmlns="http://www.w3.org/2000/svg"
 width="640.000000pt" height="960.000000pt" viewBox="0 0 640.000000 960.000000"
 preserveAspectRatio="xMidYMid meet">

<g transform="translate(0.000000,960.000000) scale(0.100000,-0.100000)"
fill="#000000" stroke="none">
<path d="M6260 7850 c-129 -44 -247 -78 -365 -105 -169 -39 -399 -103 -555
-155 -63 -21 -137 -41 -165 -45 -57 -8 -479 -110 -520 -125 -15 -6 -79 -24
-143 -41 -197 -51 -423 -110 -497 -129 -38 -10 -119 -32 -180 -49 -60 -17
-243 -65 -405 -106 -306 -78 -409 -105 -520 -136 -300 -83 -404 -110 -446
-115 -27 -3 -62 -9 -79 -14 -16 -5 -50 -14 -75 -20 -25 -6 -79 -22 -120 -35
-41 -13 -87 -26 -102 -29 -14 -2 -35 -9 -45 -14 -10 -5 -42 -13 -70 -17 -29
-4 -53 -11 -53 -17 0 -6 -10 -8 -21 -5 -12 3 -29 2 -38 -2 -67 -34 -367 -117
-560 -157 -42 -9 -146 -36 -231 -61 -85 -24 -171 -48 -190 -53 -104 -25 -187
-53 -198 -68 -8 -11 -11 -29 -7 -52 10 -53 92 -218 129 -259 9 -10 16 -21 16
-24 0 -4 13 -26 30 -49 16 -22 30 -44 30 -49 0 -4 18 -25 40 -47 22 -21 40
-43 40 -49 0 -5 11 -20 25 -33 14 -13 25 -32 25 -42 0 -11 4 -17 9 -13 5 3 12
1 16 -5 4 -6 11 -8 16 -5 13 9 10 -7 -5 -28 -9 -11 -12 -34 -10 -60 3 -38 1
-44 -26 -59 -20 -12 -30 -13 -33 -5 -5 14 -2 16 -45 -45 -17 -25 -32 -53 -32
-60 0 -8 -5 -19 -12 -26 -8 -8 -9 -12 -1 -12 15 0 53 49 53 68 0 17 28 41 50
42 8 0 32 18 53 40 36 39 57 50 57 31 0 -22 -23 -68 -45 -91 -13 -14 -28 -37
-34 -51 -9 -24 -8 -26 10 -22 11 3 24 14 30 24 13 26 38 24 48 -3 7 -19 9 -15
19 25 13 50 27 66 45 48 8 -8 5 -23 -11 -57 -13 -26 -20 -49 -17 -52 6 -7 3
-14 60 102 27 54 55 101 63 103 7 3 18 16 23 29 11 30 29 31 22 2 -4 -23 -4
-23 11 -3 24 32 49 55 54 51 12 -13 -15 -49 -54 -72 -24 -14 -44 -30 -44 -34
0 -10 40 -1 58 13 11 8 12 5 6 -19 -4 -16 -13 -36 -20 -45 -8 -8 -14 -20 -14
-25 0 -5 -9 -20 -20 -34 -11 -14 -20 -34 -20 -46 0 -11 -11 -35 -24 -53 -14
-19 -28 -46 -31 -62 -4 -16 -13 -29 -21 -29 -7 0 -20 -13 -29 -30 -17 -32 -38
-41 -29 -12 5 16 5 16 -6 -1 -6 -9 -8 -22 -5 -27 3 -6 1 -10 -4 -10 -6 0 -11
-7 -11 -15 0 -8 -9 -20 -19 -27 -10 -6 -17 -17 -14 -24 6 -17 -13 -51 -48 -82
-17 -15 -32 -38 -33 -52 -2 -14 -11 -44 -21 -68 -13 -32 -20 -40 -27 -30 -5 8
-6 2 -2 -16 4 -15 3 -31 -2 -35 -13 -9 -44 -67 -44 -81 0 -6 5 -8 12 -4 7 5 9
0 6 -14 -3 -12 -2 -22 2 -24 9 -3 -2 -69 -23 -143 -6 -22 -13 -56 -15 -75 -2
-19 -8 -40 -12 -45 -10 -12 -10 -15 -2 -230 9 -251 7 -392 -5 -406 -38 -49
-141 -528 -147 -689 -2 -52 -2 -75 1 -50 2 25 9 50 15 55 7 7 8 -8 3 -50 -5
-33 -9 -76 -10 -95 -3 -57 -5 -61 -16 -54 -6 3 -8 17 -5 30 4 13 2 24 -3 24
-13 0 -20 -132 -27 -480 -3 -162 -6 -324 -7 -360 -1 -44 2 -65 10 -65 6 0 14
-3 17 -6 4 -3 8 -74 10 -157 3 -83 7 -156 11 -162 4 -6 1 -17 -5 -25 -8 -9 -8
-15 -2 -15 11 0 10 -13 -8 -95 -6 -27 -13 -72 -17 -100 -5 -45 -4 -48 11 -36
14 12 16 9 16 -26 0 -25 8 -50 20 -66 11 -14 20 -33 20 -44 0 -10 4 -24 8 -31
10 -16 42 -5 42 14 0 8 5 14 12 14 6 0 19 6 27 14 9 7 43 18 76 25 62 12 75 7
88 -33 5 -15 37 12 37 31 0 8 36 30 82 52 46 21 100 50 122 64 44 31 86 45
171 57 110 16 197 38 216 56 11 10 32 37 47 61 35 56 60 57 68 1 12 -75 52
-90 186 -72 l44 6 12 82 c7 45 10 121 7 171 -8 120 -16 389 -16 497 0 88 6
128 20 128 9 0 7 27 -4 54 -8 19 -8 30 -6 206 1 107 -6 248 -13 267 -5 12 6
17 26 14 4 0 4 16 1 36 l-6 36 24 -16 c31 -23 42 -21 29 3 -9 17 -8 20 7 20
27 0 67 -93 55 -128 -11 -32 -6 -53 12 -46 9 3 16 -6 20 -26 3 -17 10 -29 15
-26 20 12 33 -22 22 -59 -12 -44 -7 -59 25 -73 26 -12 33 -49 12 -70 -9 -9 -3
-19 23 -44 29 -28 31 -33 15 -36 -13 -3 -4 -13 37 -38 46 -30 53 -39 49 -60
-3 -15 -10 -23 -20 -22 -11 2 -17 -4 -17 -16 0 -20 -49 -41 -68 -29 -6 3 -7 1
-3 -6 9 -13 103 -61 122 -61 22 0 25 -31 3 -37 -11 -3 -18 -11 -16 -18 6 -13
-79 -15 -100 -2 -6 4 -14 3 -18 -3 -3 -5 3 -10 15 -10 11 0 23 -7 26 -15 4 -8
13 -15 22 -15 13 0 13 -2 -1 -18 -29 -32 -22 -46 20 -37 54 10 60 10 145 -13
94 -24 103 -29 87 -48 -8 -10 -8 -14 0 -14 6 0 13 1 15 3 2 1 12 -5 22 -14 11
-9 28 -20 39 -24 19 -8 19 -9 -2 -12 -13 -3 -23 -11 -23 -19 0 -18 17 -18 35
0 8 7 46 16 84 20 52 5 71 11 71 22 0 8 5 14 10 14 6 0 10 -6 10 -14 0 -8 16
-16 40 -20 22 -3 40 -11 40 -16 0 -6 11 -15 24 -21 26 -12 25 -45 -2 -65 -20
-15 -9 -30 28 -37 18 -4 30 -13 30 -22 0 -18 -23 -20 -50 -3 -26 16 -39 2 -14
-16 27 -20 152 -17 216 5 60 20 78 16 78 -17 0 -18 -7 -25 -27 -30 -46 -10
-49 -12 -16 -13 17 -1 34 -5 37 -10 3 -4 38 -7 77 -6 65 2 70 1 48 -11 -13 -7
-32 -13 -41 -14 -10 0 -18 -4 -18 -8 0 -5 -23 -19 -50 -32 -67 -31 -87 -56
-24 -29 27 12 53 25 58 30 14 13 23 11 23 -5 0 -8 -32 -31 -71 -50 -189 -94
-238 -128 -219 -147 8 -8 22 -4 51 15 42 26 112 58 112 50 0 -2 16 2 35 10 19
8 35 13 35 10 0 -3 17 7 37 21 21 14 42 25 48 25 5 0 0 -7 -12 -15 -12 -8 -35
-28 -50 -43 -16 -15 -60 -56 -98 -91 -161 -146 -340 -331 -321 -331 3 0 45 39
94 87 48 49 101 99 118 113 17 14 62 51 101 82 39 32 73 58 76 58 5 0 104 63
124 80 7 6 19 10 27 10 8 0 22 10 30 22 9 12 16 19 16 15 0 -4 10 -3 23 3 21
11 21 10 3 -4 -11 -9 -23 -16 -28 -16 -4 0 -7 -5 -5 -12 1 -7 -3 -12 -9 -13
-13 0 -70 -65 -57 -65 13 0 52 28 112 82 30 26 58 48 62 48 4 0 44 25 90 55
99 65 245 118 260 94 7 -11 11 -10 24 8 9 12 32 27 53 32 98 26 190 39 227 33
34 -6 41 -12 45 -37 l6 -30 13 24 c8 14 16 19 20 13 5 -8 25 -6 69 6 60 16 64
16 99 -3 20 -11 44 -27 52 -36 22 -21 134 -104 160 -119 15 -8 54 -9 124 -5
l102 7 135 -65 c74 -36 173 -83 220 -104 146 -69 175 -92 493 -402 92 -89 170
-203 239 -347 27 -58 52 -103 55 -101 2 3 -12 40 -31 83 -20 42 -34 79 -31 82
2 3 9 -6 14 -19 5 -13 23 -40 40 -59 17 -19 37 -47 44 -62 6 -16 15 -28 18
-28 12 0 20 -33 25 -95 8 -106 14 -135 39 -183 14 -26 43 -87 66 -137 23 -49
48 -94 55 -98 8 -4 32 -42 55 -83 22 -40 42 -74 43 -74 2 0 14 9 27 21 13 11
29 24 35 27 7 4 15 32 18 62 l7 55 -35 -38 c-33 -37 -35 -38 -45 -18 -6 11
-11 44 -10 73 l1 53 13 -40 14 -40 -5 50 c-3 28 -7 77 -9 110 -2 33 -9 78 -15
99 -6 21 -10 50 -7 63 2 13 0 26 -4 29 -5 3 -9 30 -9 60 0 30 -4 54 -10 54 -5
0 -10 11 -10 24 0 14 -5 28 -10 31 -6 4 -8 11 -5 16 4 5 2 9 -3 9 -5 0 -12 17
-16 38 -3 21 -15 47 -26 57 -11 10 -20 23 -20 29 0 9 -42 70 -102 147 -35 45
-197 208 -228 229 -19 13 -37 25 -40 27 -2 2 2 9 10 14 12 9 11 10 -4 5 -26
-9 -71 21 -57 38 6 7 8 15 5 19 -11 11 8 47 24 46 11 0 12 -3 5 -6 -7 -2 -13
-9 -13 -14 0 -15 22 -10 36 8 11 17 16 15 66 -19 29 -20 82 -63 118 -95 87
-78 301 -305 351 -372 21 -29 39 -49 39 -43 0 34 -297 352 -480 515 -75 67
-78 74 -35 90 6 3 7 8 3 12 -4 4 -17 -2 -29 -14 -17 -16 -26 -18 -41 -10 -16
9 -19 17 -14 42 3 18 8 50 11 71 3 21 7 41 9 44 3 2 0 14 -7 26 -6 11 -12 26
-12 31 -1 6 -6 19 -12 30 -14 26 -9 72 11 94 9 10 16 22 16 28 0 16 -29 70
-45 83 -8 7 -15 21 -15 31 0 10 -4 21 -10 24 -5 3 -10 15 -10 26 0 10 -4 19
-8 19 -18 0 -35 79 -35 158 1 70 -1 81 -13 71 -18 -14 -19 3 -3 33 19 36 21
124 4 158 -9 17 -14 39 -12 48 3 12 5 11 6 -5 1 -29 16 -37 32 -17 10 12 10
20 1 35 -14 23 -16 46 -3 51 6 1 11 14 13 28 2 14 7 31 11 38 5 7 4 12 -2 12
-19 0 -12 34 14 72 14 20 25 39 25 42 0 4 18 22 40 42 l40 37 -4 73 c-4 60
-13 90 -49 166 -43 91 -44 96 -50 223 -10 203 -33 413 -56 518 -6 23 -13 58
-16 77 -6 35 -36 159 -75 305 -11 44 -23 93 -26 108 -10 53 -34 109 -55 131
-12 12 -31 44 -43 72 -11 27 -39 80 -61 118 -22 37 -48 84 -58 105 -10 20 -22
43 -27 51 -6 8 -20 34 -32 58 -12 23 -26 42 -30 42 -5 0 -4 -9 2 -20 7 -12 7
-20 1 -20 -13 0 -23 33 -16 53 4 8 2 18 -4 22 -7 3 -8 0 -5 -9 4 -9 1 -16 -6
-16 -8 0 -11 9 -7 26 3 17 -2 31 -14 43 -11 10 -21 31 -22 47 -4 32 -19 65
-40 86 -7 7 -19 29 -27 48 -8 19 -17 37 -20 40 -10 8 -70 110 -70 118 0 5 -16
41 -35 81 -19 40 -37 81 -38 91 -2 11 -10 27 -18 37 -25 30 -49 71 -49 85 0 9
3 9 10 -2 5 -8 10 -12 10 -7 0 8 -77 147 -115 207 -19 29 -35 72 -39 101 -1 4
-13 21 -28 40 -16 18 -28 41 -28 50 0 10 -4 20 -9 23 -5 3 -21 29 -36 58 -15
29 -33 57 -41 63 -12 10 -65 77 -140 178 -20 26 -42 47 -49 47 -7 0 -19 8 -26
17 -12 14 -12 16 0 8 10 -5 12 -4 7 4 -4 6 -11 9 -15 6 -5 -2 -16 4 -26 15
-10 11 -14 20 -9 20 5 0 -6 10 -24 22 -20 12 -31 26 -28 35 3 8 -3 17 -17 22
-12 5 -34 20 -48 34 -14 15 -43 36 -65 49 -53 31 -135 91 -130 95 2 2 13 5 24
8 11 2 30 8 41 14 11 6 31 11 45 11 26 0 129 25 146 35 6 3 29 7 51 7 23 0 62
9 87 20 25 11 74 22 111 24 36 2 91 13 121 25 130 50 188 66 270 74 79 7 97
12 132 36 14 11 37 19 51 19 47 0 199 31 230 46 17 9 44 18 61 21 17 3 49 11
71 19 22 7 52 14 67 14 15 0 37 4 50 9 50 20 63 24 76 22 7 -1 25 5 40 13 56
30 107 44 125 35 10 -6 23 -6 34 0 10 5 39 12 66 16 26 4 50 11 52 15 11 18
119 42 161 35 30 -4 52 -1 73 9 38 20 70 20 77 1 8 -20 21 -19 41 5 10 11 23
20 30 20 10 0 13 63 13 299 l0 299 -47 -18 c-27 -9 -64 -20 -83 -24 -32 -6
-33 -5 -15 8 11 9 26 16 33 16 6 0 12 5 12 10 0 12 -6 12 -40 0z m-4803 -1804
c-4 -10 0 -12 14 -9 10 3 19 1 19 -5 0 -15 -50 -52 -70 -52 -9 0 -25 -9 -35
-20 -17 -19 -17 -20 1 -20 10 1 30 7 44 15 52 30 54 12 3 -38 -20 -20 -32 -37
-28 -37 11 0 -27 -29 -39 -30 -4 0 -5 7 -2 16 3 9 2 12 -4 9 -6 -4 -9 -14 -8
-22 2 -9 -3 -18 -11 -21 -9 -3 -11 0 -6 8 5 8 3 11 -6 8 -8 -3 -13 -16 -12
-34 1 -16 0 -23 -3 -17 -7 15 -38 1 -68 -29 -26 -28 -13 -33 34 -14 65 26 68
23 24 -27 -6 -7 -16 -21 -23 -32 -9 -14 -11 -15 -7 -3 3 12 1 15 -10 11 -14
-5 -18 -16 -14 -42 1 -7 -8 -20 -19 -28 -12 -8 -21 -21 -21 -30 0 -9 -3 -14
-6 -11 -3 4 -15 -3 -26 -14 l-21 -21 -9 24 c-6 15 -5 32 1 47 6 13 11 31 11
42 0 10 11 27 25 38 29 23 32 32 10 32 -21 0 -19 24 5 45 11 10 20 25 20 34 0
9 14 25 30 34 17 10 30 22 30 28 0 5 11 9 25 9 17 0 29 8 37 25 16 36 2 42
-28 12 -31 -31 -94 -70 -94 -58 0 4 11 25 25 45 14 20 25 40 25 44 0 4 19 13
41 20 23 7 51 24 62 38 29 37 96 61 84 30z m118 -5 c-3 -6 -11 -11 -17 -11 -6
0 -6 6 2 15 14 17 26 13 15 -4z m1562 -58 c-3 -5 20 -8 51 -9 106 -2 344 -14
351 -18 4 -3 40 -7 81 -11 90 -7 122 -14 115 -25 -3 -5 5 -10 17 -12 13 -2 22
-9 20 -16 -1 -8 11 -12 35 -12 27 0 34 -3 24 -9 -10 -6 0 -8 27 -4 36 5 46 2
65 -18 12 -13 34 -32 50 -42 15 -9 27 -24 27 -32 0 -8 4 -15 9 -15 5 0 14 -13
21 -30 7 -16 16 -30 21 -30 5 0 9 -6 9 -14 0 -7 7 -19 15 -26 8 -7 15 -23 15
-36 0 -13 5 -24 10 -24 6 0 10 -7 10 -16 0 -14 16 -69 38 -134 3 -8 7 -31 8
-50 13 -198 14 -205 34 -233 24 -31 20 -57 -7 -58 -143 -5 -180 -7 -193 -12
-8 -3 -40 -8 -70 -12 -83 -9 -128 -23 -151 -48 -24 -25 -49 -81 -49 -108 0
-11 -4 -19 -10 -19 -5 0 -10 -8 -10 -19 0 -10 -7 -32 -15 -47 -8 -16 -15 -55
-15 -89 0 -49 4 -62 20 -73 17 -10 20 -9 26 12 4 18 11 23 27 18 12 -3 27 -9
33 -14 6 -4 20 -5 30 -2 15 6 13 0 -8 -23 -35 -36 -35 -48 -3 -49 14 -1 37 -5
51 -8 16 -4 23 -3 19 3 -11 18 15 51 52 66 44 19 86 20 80 3 -2 -7 2 -31 10
-53 9 -26 10 -41 3 -43 -5 -2 -10 -10 -10 -18 0 -9 5 -12 10 -9 6 3 10 2 10
-3 0 -12 -42 -24 -50 -14 -3 4 -21 7 -40 7 -19 -1 -51 4 -70 11 -25 10 -30 10
-17 1 93 -61 132 -85 197 -116 96 -47 214 -161 224 -217 5 -24 3 -43 -7 -58
-8 -12 -17 -46 -20 -76 -3 -30 -9 -70 -12 -87 -5 -22 -4 -33 4 -33 13 0 15
-37 1 -42 -5 -1 -12 -30 -14 -64 -3 -33 -12 -74 -21 -90 -8 -16 -15 -39 -15
-51 0 -12 -4 -24 -9 -27 -5 -3 -12 -27 -16 -52 -4 -26 -11 -55 -16 -65 -5 -11
-13 -28 -19 -39 -5 -11 -10 -29 -10 -40 0 -11 -5 -20 -11 -20 -6 0 -8 -7 -5
-15 3 -9 2 -23 -3 -33 -5 -9 -15 -30 -22 -47 -25 -57 -64 -114 -79 -115 -11 0
-11 -3 -2 -12 14 -14 16 -52 2 -43 -6 4 -10 -6 -10 -22 0 -62 -36 -132 -90
-178 -7 -5 -35 -31 -62 -57 -27 -27 -57 -48 -66 -49 -9 0 -30 -9 -47 -19 -16
-11 -45 -27 -63 -36 -18 -9 -35 -20 -37 -24 -3 -5 -13 -6 -24 -3 -11 3 -26 -4
-38 -16 -17 -18 -23 -19 -56 -9 -20 6 -37 17 -37 25 0 18 -18 16 -22 -3 -3
-14 -7 -13 -30 5 -28 22 -48 27 -48 11 0 -5 -7 -7 -15 -4 -8 4 -21 2 -28 -4
-14 -11 -117 -14 -117 -2 0 4 -23 5 -51 2 -50 -5 -57 -3 -137 36 -23 12 -48
19 -56 16 -7 -3 -20 6 -30 20 -10 16 -22 23 -31 20 -10 -4 -15 0 -15 11 0 14
-3 15 -15 5 -12 -10 -18 -10 -30 0 -20 16 -10 29 18 23 18 -4 19 -3 7 6 -8 6
-24 11 -35 11 -11 0 -36 10 -55 22 -19 13 -42 23 -50 24 -8 0 -24 2 -36 3 -12
0 -38 12 -58 26 -20 14 -47 25 -60 25 -12 0 -31 7 -42 15 -10 8 -29 15 -41 15
-12 0 -25 5 -28 10 -3 6 -15 10 -26 10 -11 0 -22 7 -25 15 -3 8 -21 17 -40 21
-19 3 -34 10 -34 15 0 5 -17 9 -39 9 -34 0 -44 7 -91 58 -112 122 -146 196
-191 426 -13 64 -34 135 -52 170 -28 58 -29 63 -18 111 7 27 17 77 23 110 12
68 17 416 6 408 -13 -7 -9 9 6 26 19 22 57 161 50 187 -3 13 1 28 11 38 15 15
23 48 29 116 1 14 10 39 19 57 9 18 17 39 17 48 0 10 8 29 18 43 10 15 22 34
25 42 10 23 29 49 64 87 18 20 30 40 27 45 -8 13 17 40 31 34 7 -2 18 0 26 6
11 8 11 11 1 15 -8 3 18 36 72 89 48 46 86 87 86 90 0 4 -7 1 -15 -6 -9 -7
-19 -10 -22 -6 -4 4 -2 11 5 15 7 4 12 14 10 22 -2 8 3 13 10 11 7 -1 25 9 40
23 15 14 22 25 16 25 -5 0 -15 -5 -22 -12 -21 -21 -13 7 9 31 25 27 17 42 -9
18 -35 -32 -33 -17 3 26 34 39 151 137 165 137 3 0 15 8 26 18 10 10 30 26 44
36 l25 18 -25 -7 c-23 -6 -22 -5 5 13 17 10 36 26 44 35 7 10 17 17 21 17 4 0
31 15 58 34 28 19 71 42 96 51 26 10 46 24 46 31 0 8 9 14 20 14 11 0 20 5 20
11 0 8 17 10 51 7 39 -4 49 -2 45 8 -3 8 1 14 10 14 8 0 13 -3 11 -7z m-2067
-313 c0 -5 -7 -7 -15 -4 -8 4 -15 8 -15 10 0 2 7 4 15 4 8 0 15 -4 15 -10z
m1410 -103 c0 -2 -24 -23 -52 -47 l-53 -42 47 46 c42 41 58 53 58 43z m2650
-490 c0 -5 -4 -5 -10 -2 -5 3 -10 14 -10 23 0 15 2 15 10 2 5 -8 10 -19 10
-23z m-1093 -303 c-3 -3 -12 -4 -19 -1 -8 3 -5 6 6 6 11 1 17 -2 13 -5z m1243
-55 c15 -28 5 -23 -15 7 -9 15 -12 23 -6 20 6 -4 16 -16 21 -27z m-1225 -29
c3 -5 -1 -10 -9 -10 -9 0 -16 5 -16 10 0 6 4 10 9 10 6 0 13 -4 16 -10z m1495
-334 c0 -6 -7 -2 -15 8 -8 11 -15 25 -15 30 0 6 7 2 15 -8 8 -11 15 -25 15
-30z m-4079 2 c0 -7 0 -45 -1 -83 -1 -68 0 -73 41 -128 28 -37 49 -57 63 -57
12 0 35 -9 51 -20 56 -37 125 -17 125 36 0 13 -13 50 -29 81 -34 67 -51 163
-29 163 23 0 47 -35 36 -54 -5 -9 -7 -22 -5 -29 2 -7 11 2 18 18 21 46 59 63
59 27 0 -11 9 -29 20 -42 15 -18 20 -37 20 -85 0 -35 2 -78 5 -96 4 -30 4 -31
-5 -9 -8 22 -9 20 -5 -12 3 -32 1 -38 -15 -38 -28 0 -43 -33 -22 -47 10 -6 26
-26 37 -46 18 -35 18 -36 0 -76 -22 -49 -60 -63 -175 -65 -58 0 -83 4 -109 19
-46 28 -129 155 -150 231 l-10 39 53 -56 c54 -57 107 -82 128 -61 12 12 -38
92 -58 92 -24 0 -82 60 -99 102 -20 50 -14 112 16 170 19 38 38 50 40 26z
m229 -245 c0 -7 -4 -13 -9 -13 -11 0 -41 39 -41 53 0 13 49 -27 50 -40z m210
-183 c0 -5 -4 -10 -10 -10 -5 0 -10 5 -10 10 0 6 5 10 10 10 6 0 10 -4 10 -10z
m-1084 -573 c5 -40 3 -65 -6 -82 -9 -16 -10 -38 -4 -72 9 -54 9 -58 -2 -128
l-8 -50 -8 50 c-10 56 -19 237 -11 218 2 -7 9 -13 15 -13 7 0 8 26 3 78 -8 92
10 91 21 -1z m1254 -158 c0 -11 -4 -17 -10 -14 -5 3 -10 13 -10 21 0 8 5 14
10 14 6 0 10 -9 10 -21z m-1297 -99 c3 -11 1 -18 -4 -14 -5 3 -9 12 -9 20 0
20 7 17 13 -6z m5022 -77 c19 -60 9 -117 -25 -148 -20 -18 -20 -17 -15 66 3
46 6 91 7 99 1 8 -2 31 -6 50 -7 35 -7 35 8 10 9 -14 23 -48 31 -77z m-5025
-68 c-7 -9 -15 -13 -18 -10 -3 2 1 11 8 20 7 9 15 13 18 10 3 -2 -1 -11 -8
-20z m1467 -227 c-3 -8 -6 -5 -6 6 -1 11 2 17 5 13 3 -3 4 -12 1 -19z m3404
-291 c-8 -8 -11 -7 -11 4 0 20 13 34 18 19 3 -7 -1 -17 -7 -23z m6 -64 c-17
-18 -22 -8 -11 22 5 12 10 13 17 6 8 -8 6 -16 -6 -28z m-4960 -200 c-2 -16 -4
-3 -4 27 0 30 2 43 4 28 2 -16 2 -40 0 -55z m2523 -215 c0 -7 -5 -20 -10 -28
-8 -12 -10 -9 -10 13 0 15 5 27 10 27 6 0 10 -6 10 -12z m2544 -46 c3 -5 2
-19 -1 -32 -6 -22 -7 -23 -14 -4 -4 10 -8 25 -8 32 -1 14 15 16 23 4z m-2454
-72 c-8 -5 -22 -9 -30 -9 -10 0 -8 3 5 9 27 12 43 12 25 0z m1610 -30 c32 -25
24 -25 -25 0 -25 13 -32 20 -20 20 11 0 31 -9 45 -20z m116 -76 c18 -14 18
-14 -6 -3 -31 14 -36 19 -24 19 6 0 19 -7 30 -16z m-1756 -39 c0 -2 -10 -9
-22 -15 -22 -11 -22 -10 -4 4 21 17 26 19 26 11z m2518 -22 c2 -8 -5 -13 -17
-13 -12 0 -21 6 -21 16 0 18 31 15 38 -3z m-2608 -41 c0 -4 -10 -13 -22 -21
-23 -14 -23 -14 -4 8 20 22 26 25 26 13z m2596 -29 c-10 -10 -19 5 -10 18 6
11 8 11 12 0 2 -7 1 -15 -2 -18z m29 -123 c4 -6 -2 -7 -16 -1 -13 4 -25 14
-27 20 -3 10 0 10 16 2 12 -6 24 -16 27 -21z m499 -1065 c3 -31 2 -42 -3 -30
-4 11 -11 43 -14 70 -5 32 -4 43 2 30 5 -12 11 -43 15 -70z m-34 -60 c0 -8 -4
-15 -10 -15 -5 0 -7 7 -4 15 4 8 8 15 10 15 2 0 4 -7 4 -15z"/>
<path d="M2775 5230 c-38 -4 -95 -17 -125 -29 -78 -31 -220 -104 -220 -115 0
-5 7 -2 17 5 13 11 17 11 20 2 6 -17 37 -16 71 1 38 19 202 40 262 33 27 -3
66 -15 87 -26 21 -11 47 -23 58 -26 19 -6 19 -7 3 -19 -16 -12 -16 -13 0 -27
10 -9 26 -19 37 -22 15 -6 16 -10 6 -20 -10 -9 -16 -7 -28 11 -19 27 -33 29
-26 2 4 -16 2 -19 -11 -14 -9 3 -16 13 -16 21 0 12 -3 13 -13 4 -8 -6 -53 -13
-100 -16 -95 -6 -210 -41 -186 -56 10 -6 6 -9 -13 -9 -15 0 -30 -4 -33 -10 -3
-5 -13 -10 -22 -10 -8 0 -24 -11 -35 -25 -11 -14 -23 -23 -26 -21 -13 8 -62
-40 -67 -65 -3 -13 0 -35 5 -49 10 -24 14 -25 103 -25 50 0 104 6 119 12 16 7
40 10 55 8 30 -5 70 -10 148 -19 45 -5 43 -5 -15 9 -85 19 -120 34 -120 51 0
17 30 33 50 26 8 -2 12 -1 7 3 -9 10 46 35 78 35 24 0 35 -17 35 -53 0 -12 8
-37 18 -56 l17 -34 157 -1 c155 -1 157 -1 143 19 -36 49 -36 51 3 50 21 -1 47
-5 59 -9 16 -5 27 -1 43 16 17 19 21 34 19 81 -1 32 2 62 7 65 6 4 11 23 12
42 1 19 8 46 15 59 9 19 9 25 0 28 -7 3 -13 18 -13 35 0 23 -4 29 -15 24 -9
-3 -15 0 -15 8 0 9 -7 12 -20 9 -12 -3 -22 1 -26 10 -3 9 -12 13 -20 10 -8 -3
-14 -1 -14 4 0 16 -50 34 -114 39 -33 3 -65 9 -71 13 -9 8 -50 13 -175 25 -25
2 -76 0 -115 -4z m-278 -126 c-3 -3 -12 -4 -19 -1 -8 3 -5 6 6 6 11 1 17 -2
13 -5z m458 -274 c4 -6 -6 -10 -22 -9 -25 0 -26 1 -8 9 11 5 21 9 22 9 1 1 5
-3 8 -9z"/>
<path d="M2950 4680 l-45 -7 40 -2 c30 -1 36 -4 25 -11 -24 -16 9 -12 45 5
l30 14 -30 -5 c-23 -4 -27 -3 -15 5 8 6 11 10 5 9 -5 0 -30 -4 -55 -8z"/>
<path d="M3780 4209 c0 -13 -6 -31 -13 -39 -18 -23 -105 -61 -112 -50 -11 18
-43 10 -59 -16 -13 -18 -24 -24 -43 -22 -38 4 -38 21 0 38 76 35 28 82 -87 84
-66 1 -77 -2 -100 -23 -14 -14 -26 -30 -26 -37 0 -14 -43 -44 -65 -44 -18 0
-19 -5 -3 -33 17 -33 31 -44 64 -51 26 -6 32 -3 45 21 7 15 18 31 24 35 15 11
75 9 75 -2 0 -5 7 -10 15 -10 9 0 19 -8 22 -17 4 -10 9 -20 12 -23 4 -3 12
-17 18 -32 15 -33 27 -34 88 -8 46 20 46 20 67 0 12 -11 18 -20 14 -20 -4 0
-1 -6 6 -13 13 -15 36 -16 57 -3 32 20 78 166 52 166 -5 0 -9 12 -8 28 0 54
-3 85 -10 79 -3 -4 -12 -2 -20 4 -10 9 -13 6 -13 -12z"/>
<path d="M3440 3843 c-89 -29 -395 -185 -418 -214 l-23 -28 45 -21 c25 -11 60
-20 78 -20 129 0 214 6 221 15 4 6 10 5 16 -4 6 -9 11 -10 15 -2 4 6 12 9 17
5 5 -3 36 -5 67 -5 60 0 77 -6 77 -26 0 -7 5 -12 10 -10 6 1 9 8 8 15 -1 9 6
12 20 8 12 -3 25 -6 29 -6 4 0 5 -6 2 -14 -3 -8 -1 -17 4 -20 6 -3 12 1 16 9
14 38 57 2 55 -47 0 -14 -3 -17 -6 -8 -10 31 -27 60 -34 60 -5 0 -3 -12 3 -26
10 -21 9 -27 -3 -35 -20 -13 -27 -11 -32 9 -4 16 -5 16 -6 0 0 -10 -12 -20
-27 -24 -55 -14 -284 18 -317 44 -7 5 -25 12 -40 14 -41 8 -31 -21 16 -46 20
-11 37 -25 37 -32 0 -8 6 -11 14 -8 8 3 16 -4 20 -20 10 -41 147 -119 178
-100 4 3 13 2 20 -2 13 -8 71 -8 171 -1 59 5 73 10 100 36 17 17 36 31 42 31
6 0 18 8 27 18 36 38 71 63 77 53 11 -18 32 5 33 37 1 27 -16 63 -44 97 -11
12 -67 102 -89 142 -9 16 -37 46 -62 67 -45 37 -50 38 -154 47 -59 5 -117 11
-128 13 -11 2 -27 2 -35 -1z m265 -323 c3 -6 -1 -7 -9 -4 -18 7 -21 14 -7 14
6 0 13 -4 16 -10z m35 -20 c0 -5 -4 -10 -10 -10 -5 0 -10 5 -10 10 0 6 5 10
10 10 6 0 10 -4 10 -10z"/>
<path d="M3025 3570 c3 -5 8 -10 11 -10 2 0 4 5 4 10 0 6 -5 10 -11 10 -5 0
-7 -4 -4 -10z"/>
<path d="M4360 6486 c0 -2 8 -10 18 -17 15 -13 16 -12 3 4 -13 16 -21 21 -21
13z"/>
<path d="M95 6205 c-5 -2 -29 -9 -52 -15 l-43 -11 0 -231 0 -230 23 6 c12 4
37 9 55 13 18 3 42 17 52 31 38 47 43 89 34 268 l-9 169 -25 2 c-14 1 -29 0
-35 -2z"/>
<path d="M996 5641 c-11 -12 -16 -24 -12 -28 9 -9 39 22 34 37 -2 7 -10 4 -22
-9z"/>
<path d="M1241 5504 c0 -11 3 -14 6 -6 3 7 2 16 -1 19 -3 4 -6 -2 -5 -13z"/>
<path d="M1207 5428 c-23 -40 -18 -43 11 -7 12 15 19 30 14 33 -4 2 -15 -9
-25 -26z"/>
<path d="M1090 5430 c0 -5 5 -10 10 -10 6 0 10 5 10 10 0 6 -4 10 -10 10 -5 0
-10 -4 -10 -10z"/>
<path d="M1089 5381 c-14 -24 -14 -32 -2 -57 7 -16 11 -21 8 -11 -2 10 1 20 9
23 13 5 17 56 6 68 -3 2 -13 -8 -21 -23z"/>
<path d="M1090 5264 c0 -8 5 -12 10 -9 6 3 10 10 10 16 0 5 -4 9 -10 9 -5 0
-10 -7 -10 -16z"/>
<path d="M830 4697 c-11 -26 -16 -87 -10 -137 1 -8 -2 -26 -6 -40 -5 -20 -4
-23 6 -13 8 7 13 40 13 87 0 42 4 76 9 76 4 0 8 7 8 15 0 8 5 15 10 15 15 0
12 17 -3 23 -8 3 -19 -8 -27 -26z"/>
<path d="M875 4654 c9 -9 19 -13 23 -10 3 4 0 11 -8 16 -24 15 -33 11 -15 -6z"/>
<path d="M760 4510 c0 -22 -4 -28 -15 -23 -9 3 -15 2 -14 -3 1 -5 -3 -21 -9
-35 -5 -14 -12 -41 -14 -60 -1 -19 -8 -38 -14 -44 -17 -16 -39 -124 -38 -195
1 -117 29 -396 37 -375 4 11 7 112 6 225 -2 149 1 212 10 229 8 14 10 37 6 58
-4 22 -3 33 4 29 6 -4 11 9 13 31 2 21 8 37 14 36 7 -1 10 10 8 29 -2 18 1 35
7 38 15 10 25 90 10 90 -6 0 -11 -13 -11 -30z"/>
<path d="M791 4454 c0 -11 3 -14 6 -6 3 7 2 16 -1 19 -3 4 -6 -2 -5 -13z"/>
<path d="M684 3719 c3 -17 6 -38 6 -45 0 -21 18 -17 25 5 7 23 -10 71 -26 71
-8 0 -9 -11 -5 -31z"/>
<path d="M730 3605 c-7 -9 -11 -18 -8 -20 3 -3 11 1 18 10 7 9 11 18 8 20 -3
3 -11 -1 -18 -10z"/>
<path d="M652 2700 c0 -19 2 -27 5 -17 2 9 2 25 0 35 -3 9 -5 1 -5 -18z"/>
<path d="M5761 2624 c0 -11 3 -14 6 -6 3 7 2 16 -1 19 -3 4 -6 -2 -5 -13z"/>
<path d="M631 2604 c0 -11 3 -14 6 -6 3 7 2 16 -1 19 -3 4 -6 -2 -5 -13z"/>
<path d="M2246 2071 c-11 -18 6 -42 25 -36 11 4 19 2 19 -5 0 -7 -9 -14 -19
-17 -11 -3 -17 -11 -14 -18 2 -8 -5 -22 -16 -32 -12 -9 -21 -23 -21 -30 0 -7
-5 -13 -11 -13 -8 0 -7 -5 2 -16 11 -14 10 -18 -9 -32 -18 -14 -23 -29 -26
-90 -2 -39 0 -74 4 -77 13 -8 39 23 46 53 4 15 12 34 19 42 7 8 13 22 14 30 4
54 19 90 36 90 17 0 28 31 15 44 -5 5 -10 28 -10 49 0 47 -37 86 -54 58z"/>
<path d="M660 2010 c0 -5 5 -10 10 -10 6 0 10 5 10 10 0 6 -4 10 -10 10 -5 0
-10 -4 -10 -10z"/>
<path d="M5822 1810 c14 -22 24 -19 15 5 -4 8 -11 15 -17 15 -6 0 -6 -7 2 -20z"/>
<path d="M2905 1609 c-16 -10 -26 -19 -21 -19 5 0 3 -7 -4 -15 -7 -9 -19 -14
-26 -11 -8 3 -13 0 -11 -7 1 -7 -4 -11 -11 -9 -26 5 -209 -160 -261 -236 l-33
-47 32 35 c130 141 197 196 347 281 40 22 50 39 27 45 -5 1 -22 -6 -39 -17z"/>
<path d="M3186 1482 l-19 -27 24 22 c12 12 21 24 18 27 -2 2 -13 -8 -23 -22z"/>
<path d="M1586 710 c-161 -16 -368 -50 -688 -115 -84 -17 -113 -32 -218 -114
-47 -36 -104 -79 -127 -94 -23 -16 -50 -38 -60 -49 l-18 -21 30 18 c17 10 39
26 50 35 27 23 205 144 232 159 37 19 360 89 493 106 277 36 533 35 840 -4
110 -14 240 -22 390 -24 212 -4 233 -6 363 -36 76 -18 197 -50 270 -72 168
-51 437 -129 447 -129 4 0 12 11 18 25 11 24 10 25 -61 45 -40 12 -133 41
-207 65 -138 45 -315 94 -437 121 -42 9 -168 18 -333 24 -154 5 -328 18 -415
29 -159 21 -395 42 -454 40 -20 -1 -71 -5 -115 -9z"/>
<path d="M1360 604 c-143 -16 -220 -29 -322 -54 -65 -17 -124 -30 -133 -30
-67 0 -318 -153 -461 -281 -40 -36 -76 -52 -144 -63 -27 -5 -44 -17 -68 -48
-18 -24 -28 -44 -22 -46 32 -11 113 23 177 74 37 29 90 66 118 80 27 15 82 49
121 75 174 119 324 150 799 169 203 7 274 6 380 -6 219 -24 320 -28 409 -14
103 16 166 8 431 -56 105 -25 258 -61 340 -81 83 -20 222 -58 310 -85 88 -27
169 -47 179 -46 22 3 90 108 78 119 -8 8 -189 64 -240 74 -18 4 -79 22 -137
40 -117 38 -443 120 -520 131 -27 4 -149 8 -270 9 -158 1 -251 6 -330 19 -83
14 -178 19 -385 21 -151 1 -291 1 -310 -1z"/>
<path d="M1412 366 c-16 -19 -43 -54 -59 -78 -32 -46 -163 -274 -163 -283 0
-3 81 -4 181 -3 l181 3 34 63 34 63 -97 -1 c-54 -1 -101 -1 -106 -1 -4 1 6 22
22 47 l28 46 123 4 123 4 56 52 c57 52 86 86 79 93 -8 8 -216 25 -308 25 l-98
0 -30 -34z"/>
<path d="M1146 379 c-76 -4 -141 -11 -145 -16 -41 -57 -223 -335 -227 -347 -5
-14 13 -16 162 -16 l169 0 33 62 33 61 -100 -7 c-56 -3 -101 -4 -101 0 0 3 14
25 30 49 33 48 31 47 190 61 l75 6 57 79 58 79 -48 -2 c-26 0 -109 -4 -186 -9z"/>
<path d="M1966 373 c-55 -6 -160 -100 -221 -197 -25 -40 -45 -76 -45 -80 0 -3
-11 -24 -25 -46 -14 -22 -25 -42 -25 -45 0 -3 34 -5 75 -5 68 0 76 2 91 25 9
14 20 25 25 25 5 0 9 -11 9 -25 l0 -25 183 0 183 0 81 99 c90 108 170 228 159
239 -8 7 -142 41 -167 42 -8 0 -26 -19 -39 -42 -54 -97 -184 -288 -191 -281
-4 4 -9 79 -11 165 -3 177 6 160 -82 151z"/>
<path d="M895 355 c-5 -2 -27 -6 -47 -10 -33 -5 -42 -14 -84 -83 -26 -42 -74
-116 -106 -165 -32 -48 -58 -90 -58 -92 0 -3 22 -5 49 -5 46 0 52 3 76 38 44
64 205 313 205 318 0 5 -20 4 -35 -1z"/>
<path d="M444 305 c-10 -8 -40 -22 -66 -30 -44 -15 -65 -35 -35 -35 22 1 92
37 111 59 22 24 18 27 -10 6z"/>
<path d="M2571 289 c-19 -6 -47 -20 -62 -32 -31 -25 -199 -234 -199 -248 0 -5
67 -9 153 -9 151 1 152 1 107 17 -25 8 -47 17 -49 19 -8 7 29 70 48 81 17 11
45 6 178 -33 87 -26 167 -49 178 -51 17 -4 30 10 67 69 26 41 50 81 53 89 4
12 -18 21 -102 41 -223 55 -324 71 -372 57z"/>
<path d="M623 250 c-32 -19 -80 -76 -163 -192 l-41 -58 36 0 c32 0 38 5 71 58
48 75 98 150 125 185 24 32 16 34 -28 7z"/>
<path d="M415 109 c-133 -117 -128 -109 -70 -109 l50 0 42 63 c95 143 93 148
-22 46z"/>
<path d="M6350 120 c0 -5 5 -10 10 -10 6 0 10 5 10 10 0 6 -4 10 -10 10 -5 0
-10 -4 -10 -10z"/>
</g>
</svg>
